<svg width="824" height="274" viewBox="0 0 824 274" fill="none" xmlns="http://www.w3.org/2000/svg">
<circle cx="152" cy="153" r="115" fill="#BEC6CA" stroke="#22242E" stroke-width="8"/>
<path d="M277.71 90.7177C291.261 115.415 246.019 166.287 176.659 204.344C107.3 242.401 40.0873 253.232 26.5363 228.535C19.4481 215.616 28.4459 195.537 48.5672 173.875C48.613 173.826 48.6589 173.776 48.7048 173.727C67.0513 154.019 94.5897 133.014 127.587 114.908C157.766 98.3494 187.538 86.9449 212.661 81.3788C212.738 81.3617 212.815 81.3448 212.892 81.3278C226.757 78.2722 239.198 76.9995 249.5 77.6251C263.348 78.466 273.331 82.7369 277.71 90.7177Z" stroke="#131E2A" stroke-width="32"/>
<path d="M277.71 90.7177C291.261 115.415 246.019 166.287 176.659 204.344C107.3 242.401 40.0873 253.232 26.5363 228.535C19.4481 215.616 28.4459 195.537 48.5672 173.875C48.613 173.826 48.6589 173.776 48.7048 173.727C67.0513 154.019 94.5897 133.014 127.587 114.908C157.766 98.3494 187.538 86.9449 212.661 81.3788C212.738 81.3617 212.815 81.3448 212.892 81.3278C226.757 78.2722 239.198 76.9995 249.5 77.6251C263.348 78.466 273.331 82.7369 277.71 90.7177Z" stroke="#603E3E" stroke-opacity="0.2" stroke-width="32"/>
<path d="M277.71 90.7177C291.261 115.415 246.019 166.287 176.659 204.344C107.3 242.401 40.0873 253.232 26.5363 228.535C19.4481 215.616 28.4459 195.537 48.5672 173.875C48.613 173.826 48.6589 173.776 48.7048 173.727C67.0513 154.019 94.5897 133.014 127.587 114.908C157.766 98.3494 187.538 86.9449 212.661 81.3788C212.738 81.3617 212.815 81.3448 212.892 81.3278C226.757 78.2722 239.198 76.9995 249.5 77.6251C263.348 78.466 273.331 82.7369 277.71 90.7177Z" stroke="#456A8E" stroke-width="16"/>
<path d="M277.71 90.7177C291.261 115.415 246.019 166.287 176.659 204.344C107.3 242.401 40.0873 253.232 26.5363 228.535C19.4481 215.616 28.4459 195.537 48.5672 173.875C48.613 173.826 48.6589 173.776 48.7048 173.727C67.0513 154.019 94.5897 133.014 127.587 114.908C157.766 98.3494 187.538 86.9449 212.661 81.3788C212.738 81.3617 212.815 81.3448 212.892 81.3278C226.757 78.2722 239.198 76.9995 249.5 77.6251C263.348 78.466 273.331 82.7369 277.71 90.7177Z" stroke="#603E3E" stroke-opacity="0.2" stroke-width="16"/>
<path d="M247.758 96.1288C217.106 43.0384 149.219 24.8482 96.1288 55.5C43.0383 86.1518 24.8482 154.038 55.5 207.129L247.758 96.1288Z" fill="#BEC6CA"/>
<path d="M368.453 96L368.771 96.0098C370.247 96.1036 371.606 96.847 372.481 98.0381L372.662 98.2998L420.5 172.857V101C420.5 98.2386 422.739 96 425.5 96H443.5C446.261 96 448.5 98.2386 448.5 101V219C448.5 221.761 446.261 224 443.5 224H425.047C423.45 224 421.957 223.238 421.019 221.962L420.838 221.7L373 147.142V219C373 221.761 370.761 224 368 224H350C347.239 224 345 221.761 345 219V101C345 98.2386 347.239 96 350 96H368.453Z" fill="#BEC6CA" stroke="#22242E" stroke-width="8"/>
<path d="M531 96C566.346 96 595 124.654 595 160C595 195.346 566.346 224 531 224C495.654 224 467 195.346 467 160C467 124.654 495.654 96 531 96ZM531 123C510.565 123 494 139.565 494 160C494 180.435 510.565 197 531 197C551.435 197 568 180.435 568 160C568 139.565 551.435 123 531 123Z" fill="#BEC6CA" stroke="#22242E" stroke-width="8"/>
<path d="M623.793 96C625.845 96 627.681 97.2523 628.437 99.1455L628.507 99.331L632.521 110.665L654.75 173.43L676.979 110.665L680.993 99.331L681.063 99.1455C681.819 97.2523 683.655 96 685.707 96H708.585C711.929 96 714.299 99.2054 713.396 102.364L713.298 102.669L671.507 220.669C670.823 222.6 669.033 223.911 667 223.995V224H642.5V223.995C640.532 223.914 638.794 222.684 638.063 220.854L637.993 220.669L596.202 102.669C595.05 99.415 597.463 96 600.915 96H623.793Z" fill="#BEC6CA" stroke="#22242E" stroke-width="8"/>
<path d="M813.32 223.015C817.062 224.21 820.681 220.743 819.648 216.953L819.529 216.573L778.007 99.3311C777.3 97.3347 775.411 96 773.293 96H749.207C747.155 96 745.319 97.2523 744.563 99.1455L744.493 99.3311L702.971 216.573C701.578 220.507 705.313 224.25 709.18 223.015L709.555 222.879L732.079 213.79L732.324 213.683C733.454 213.155 734.347 212.224 734.825 211.072L734.921 210.822L739.816 197H782.684L787.579 210.822L787.675 211.072C788.188 212.306 789.175 213.287 790.421 213.79L812.945 222.879L813.32 223.015ZM761.25 136.482L773.476 171H749.024L761.25 136.482Z" fill="#BEC6CA" stroke="#22242E" stroke-width="8"/>
</svg>
